<svg width="33" height="33" viewBox="0 0 33 33" fill="none" xmlns="http://www.w3.org/2000/svg">
<path d="M14.925 32.85V29.85C11.8 29.5 9.11875 28.2062 6.88125 25.9688C4.64375 23.7313 3.35 21.05 3 17.925H0V14.925H3C3.35 11.8 4.64375 9.11875 6.88125 6.88125C9.11875 4.64375 11.8 3.35 14.925 3V0H17.925V3C21.05 3.35 23.7313 4.64375 25.9688 6.88125C28.2062 9.11875 29.5 11.8 29.85 14.925H32.85V17.925H29.85C29.5 21.05 28.2062 23.7313 25.9688 25.9688C23.7313 28.2062 21.05 29.5 17.925 29.85V32.85H14.925ZM16.425 26.925C19.325 26.925 21.8 25.9 23.85 23.85C25.9 21.8 26.925 19.325 26.925 16.425C26.925 13.525 25.9 11.05 23.85 9C21.8 6.95 19.325 5.925 16.425 5.925C13.525 5.925 11.05 6.95 9 9C6.95 11.05 5.925 13.525 5.925 16.425C5.925 19.325 6.95 21.8 9 23.85C11.05 25.9 13.525 26.925 16.425 26.925ZM16.425 22.425C14.775 22.425 13.3625 21.8375 12.1875 20.6625C11.0125 19.4875 10.425 18.075 10.425 16.425C10.425 14.775 11.0125 13.3625 12.1875 12.1875C13.3625 11.0125 14.775 10.425 16.425 10.425C18.075 10.425 19.4875 11.0125 20.6625 12.1875C21.8375 13.3625 22.425 14.775 22.425 16.425C22.425 18.075 21.8375 19.4875 20.6625 20.6625C19.4875 21.8375 18.075 22.425 16.425 22.425Z" fill="#006A6A"/>
</svg>
