<svg width="33" height="27" viewBox="0 0 33 27" fill="none" xmlns="http://www.w3.org/2000/svg">
<path d="M6 27C5.575 27 5.21875 26.8563 4.93125 26.5688C4.64375 26.2812 4.5 25.925 4.5 25.5V24C3.25 24 2.1875 23.5625 1.3125 22.6875C0.4375 21.8125 0 20.75 0 19.5V12C0 11.175 0.29375 10.4688 0.88125 9.88125C1.46875 9.29375 2.175 9 3 9C3.825 9 4.53125 9.29375 5.11875 9.88125C5.70625 10.4688 6 11.175 6 12V18H27V12C27 11.175 27.2938 10.4688 27.8813 9.88125C28.4688 9.29375 29.175 9 30 9C30.825 9 31.5313 9.29375 32.1188 9.88125C32.7063 10.4688 33 11.175 33 12V19.5C33 20.75 32.5625 21.8125 31.6875 22.6875C30.8125 23.5625 29.75 24 28.5 24V25.5C28.5 25.925 28.3563 26.2812 28.0688 26.5688C27.7812 26.8563 27.425 27 27 27C26.575 27 26.2188 26.8563 25.9312 26.5688C25.6437 26.2812 25.5 25.925 25.5 25.5V24H7.5V25.5C7.5 25.925 7.35625 26.2812 7.06875 26.5688C6.78125 26.8563 6.425 27 6 27ZM9 15V12C9 10.625 8.58125 9.39375 7.74375 8.30625C6.90625 7.21875 5.825 6.45 4.5 6V4.5C4.5 3.25 4.9375 2.1875 5.8125 1.3125C6.6875 0.4375 7.75 0 9 0H24C25.25 0 26.3125 0.4375 27.1875 1.3125C28.0625 2.1875 28.5 3.25 28.5 4.5V6C27.15 6.35 26.0625 7.08125 25.2375 8.19375C24.4125 9.30625 24 10.575 24 12V15H9Z" fill="#001735"/>
</svg>
